<?plantuml 1.2026.2beta3?><svg xmlns="http://www.w3.org/2000/svg" xmlns:xlink="http://www.w3.org/1999/xlink" contentStyleType="text/css" data-diagram-type="ACTIVITY" height="868px" preserveAspectRatio="none" style="width:702px;height:868px;background:#FFFFFF;" version="1.1" viewBox="0 0 702 868" width="702px" zoomAndPan="magnify"><defs/><g><rect fill="none" height="20.9531" style="stroke:none;stroke-width:1;" width="669.8892" x="15" y="12.7451"/><ellipse cx="109.3867" cy="48.6982" fill="#222222" rx="10" ry="10" style="stroke:#222222;stroke-width:1;"/><rect fill="#F1F1F1" height="33.9688" rx="12.5" ry="12.5" style="stroke:#181818;stroke-width:0.5;" width="113.2754" x="52.749" y="78.6982"/><text fill="#000000" font-family="sans-serif" font-size="12" lengthAdjust="spacing" textLength="93.2754" x="62.749" y="99.8369">Solicitar pedido</text><rect fill="#F1F1F1" height="33.9688" rx="12.5" ry="12.5" style="stroke:#181818;stroke-width:0.5;" width="176.7734" x="21" y="132.667"/><text fill="#000000" font-family="sans-serif" font-size="12" lengthAdjust="spacing" textLength="156.7734" x="31" y="153.8057">Contactar con distribuidor</text><rect fill="#F1F1F1" height="33.9688" rx="12.5" ry="12.5" style="stroke:#181818;stroke-width:0.5;" width="106.2617" x="56.2559" y="618.3857"/><text fill="#000000" font-family="sans-serif" font-size="12" lengthAdjust="spacing" textLength="86.2617" x="66.2559" y="639.5244">Recibir pedido</text><line style="stroke:#000000;stroke-width:1.5;" x1="15" x2="15" y1="12.7451" y2="856.2607"/><rect fill="#F1F1F1" height="33.9688" rx="12.5" ry="12.5" style="stroke:#181818;stroke-width:0.5;" width="207.0957" x="258.7178" y="186.6357"/><text fill="#000000" font-family="sans-serif" font-size="12" lengthAdjust="spacing" textLength="187.0957" x="268.7178" y="207.7744">Registrar pedido manualmente</text><rect fill="#F1F1F1" height="33.9688" rx="12.5" ry="12.5" style="stroke:#181818;stroke-width:0.5;" width="180.4648" x="272.0332" y="240.6045"/><text fill="#000000" font-family="sans-serif" font-size="12" lengthAdjust="spacing" textLength="160.4648" x="282.0332" y="261.7432">Realizar pedido a la marca</text><rect fill="#F1F1F1" height="33.9688" rx="12.5" ry="12.5" style="stroke:#181818;stroke-width:0.5;" width="128.1992" x="298.166" y="402.5107"/><text fill="#000000" font-family="sans-serif" font-size="12" lengthAdjust="spacing" textLength="108.1992" x="308.166" y="423.6494">Recibir mercanc&#237;a</text><rect fill="#F1F1F1" height="33.9688" rx="12.5" ry="12.5" style="stroke:#181818;stroke-width:0.5;" width="190.584" x="266.9736" y="456.4795"/><text fill="#000000" font-family="sans-serif" font-size="12" lengthAdjust="spacing" textLength="170.584" x="276.9736" y="477.6182">Preparar pedidos por cliente</text><rect fill="#F1F1F1" height="33.9688" rx="12.5" ry="12.5" style="stroke:#181818;stroke-width:0.5;" width="184.4668" x="270.0322" y="510.4482"/><text fill="#000000" font-family="sans-serif" font-size="12" lengthAdjust="spacing" textLength="164.4668" x="280.0322" y="531.5869">Cargar pedidos en veh&#237;culo</text><rect fill="#F1F1F1" height="33.9688" rx="12.5" ry="12.5" style="stroke:#181818;stroke-width:0.5;" width="132.3535" x="296.0889" y="564.417"/><text fill="#000000" font-family="sans-serif" font-size="12" lengthAdjust="spacing" textLength="112.3535" x="306.0889" y="585.5557">Visitar peluquer&#237;as</text><rect fill="#F1F1F1" height="33.9688" rx="12.5" ry="12.5" style="stroke:#181818;stroke-width:0.5;" width="208.6074" x="257.9619" y="672.3545"/><text fill="#000000" font-family="sans-serif" font-size="12" lengthAdjust="spacing" textLength="188.6074" x="267.9619" y="693.4932">Registrar cobro (total o parcial)</text><rect fill="#F1F1F1" height="33.9688" rx="12.5" ry="12.5" style="stroke:#181818;stroke-width:0.5;" width="308.9844" x="207.7734" y="726.3232"/><text fill="#000000" font-family="sans-serif" font-size="12" lengthAdjust="spacing" textLength="288.9844" x="217.7734" y="747.4619">Actualizar informaci&#243;n en Excel/Access/Factusol</text><rect fill="#F1F1F1" height="33.9688" rx="12.5" ry="12.5" style="stroke:#181818;stroke-width:0.5;" width="143.9844" x="290.2734" y="780.292"/><text fill="#000000" font-family="sans-serif" font-size="12" lengthAdjust="spacing" textLength="123.9844" x="300.2734" y="801.4307">Elaborar parte diario</text><ellipse cx="362.2656" cy="845.2607" fill="none" rx="11" ry="11" style="stroke:#222222;stroke-width:1;"/><ellipse cx="362.2656" cy="845.2607" fill="#222222" rx="6" ry="6" style="stroke:#222222;stroke-width:1;"/><line style="stroke:#000000;stroke-width:1.5;" x1="201.7734" x2="201.7734" y1="12.7451" y2="856.2607"/><rect fill="#F1F1F1" height="33.9688" rx="12.5" ry="12.5" style="stroke:#181818;stroke-width:0.5;" width="116.4688" x="544.6587" y="294.5732"/><text fill="#000000" font-family="sans-serif" font-size="12" lengthAdjust="spacing" textLength="96.4688" x="554.6587" y="315.7119">Preparar pedido</text><rect fill="#F1F1F1" height="33.9688" rx="12.5" ry="12.5" style="stroke:#181818;stroke-width:0.5;" width="124.5723" x="540.6069" y="348.542"/><text fill="#000000" font-family="sans-serif" font-size="12" lengthAdjust="spacing" textLength="104.5723" x="550.6069" y="369.6807">Enviar mercanc&#237;a</text><line style="stroke:#000000;stroke-width:1.5;" x1="520.7578" x2="520.7578" y1="12.7451" y2="856.2607"/><line style="stroke:#000000;stroke-width:1.5;" x1="683.0283" x2="683.0283" y1="12.7451" y2="856.2607"/><line style="stroke:#181818;stroke-width:1;" x1="109.3867" x2="109.3867" y1="58.6982" y2="78.6982"/><polygon fill="#181818" points="105.3867,68.6982,109.3867,78.6982,113.3867,68.6982,109.3867,72.6982" style="stroke:#181818;stroke-width:1;"/><line style="stroke:#181818;stroke-width:1;" x1="109.3867" x2="109.3867" y1="112.667" y2="132.667"/><polygon fill="#181818" points="105.3867,122.667,109.3867,132.667,113.3867,122.667,109.3867,126.667" style="stroke:#181818;stroke-width:1;"/><line style="stroke:#181818;stroke-width:1;" x1="362.2656" x2="362.2656" y1="220.6045" y2="240.6045"/><polygon fill="#181818" points="358.2656,230.6045,362.2656,240.6045,366.2656,230.6045,362.2656,234.6045" style="stroke:#181818;stroke-width:1;"/><line style="stroke:#181818;stroke-width:1;" x1="362.2656" x2="362.2656" y1="436.4795" y2="456.4795"/><polygon fill="#181818" points="358.2656,446.4795,362.2656,456.4795,366.2656,446.4795,362.2656,450.4795" style="stroke:#181818;stroke-width:1;"/><line style="stroke:#181818;stroke-width:1;" x1="362.2656" x2="362.2656" y1="490.4482" y2="510.4482"/><polygon fill="#181818" points="358.2656,500.4482,362.2656,510.4482,366.2656,500.4482,362.2656,504.4482" style="stroke:#181818;stroke-width:1;"/><line style="stroke:#181818;stroke-width:1;" x1="362.2656" x2="362.2656" y1="544.417" y2="564.417"/><polygon fill="#181818" points="358.2656,554.417,362.2656,564.417,366.2656,554.417,362.2656,558.417" style="stroke:#181818;stroke-width:1;"/><line style="stroke:#181818;stroke-width:1;" x1="362.2656" x2="362.2656" y1="706.3232" y2="726.3232"/><polygon fill="#181818" points="358.2656,716.3232,362.2656,726.3232,366.2656,716.3232,362.2656,720.3232" style="stroke:#181818;stroke-width:1;"/><line style="stroke:#181818;stroke-width:1;" x1="362.2656" x2="362.2656" y1="760.292" y2="780.292"/><polygon fill="#181818" points="358.2656,770.292,362.2656,780.292,366.2656,770.292,362.2656,774.292" style="stroke:#181818;stroke-width:1;"/><line style="stroke:#181818;stroke-width:1;" x1="362.2656" x2="362.2656" y1="814.2607" y2="834.2607"/><polygon fill="#181818" points="358.2656,824.2607,362.2656,834.2607,366.2656,824.2607,362.2656,828.2607" style="stroke:#181818;stroke-width:1;"/><line style="stroke:#181818;stroke-width:1;" x1="602.8931" x2="602.8931" y1="328.542" y2="348.542"/><polygon fill="#181818" points="598.8931,338.542,602.8931,348.542,606.8931,338.542,602.8931,342.542" style="stroke:#181818;stroke-width:1;"/><line style="stroke:#181818;stroke-width:1;" x1="109.3867" x2="109.3867" y1="166.6357" y2="171.6357"/><line style="stroke:#181818;stroke-width:1;" x1="109.3867" x2="362.2656" y1="171.6357" y2="171.6357"/><line style="stroke:#181818;stroke-width:1;" x1="362.2656" x2="362.2656" y1="171.6357" y2="186.6357"/><polygon fill="#181818" points="358.2656,176.6357,362.2656,186.6357,366.2656,176.6357,362.2656,180.6357" style="stroke:#181818;stroke-width:1;"/><line style="stroke:#181818;stroke-width:1;" x1="362.2656" x2="362.2656" y1="274.5732" y2="279.5732"/><line style="stroke:#181818;stroke-width:1;" x1="362.2656" x2="602.8931" y1="279.5732" y2="279.5732"/><line style="stroke:#181818;stroke-width:1;" x1="602.8931" x2="602.8931" y1="279.5732" y2="294.5732"/><polygon fill="#181818" points="598.8931,284.5732,602.8931,294.5732,606.8931,284.5732,602.8931,288.5732" style="stroke:#181818;stroke-width:1;"/><line style="stroke:#181818;stroke-width:1;" x1="602.8931" x2="602.8931" y1="382.5107" y2="387.5107"/><line style="stroke:#181818;stroke-width:1;" x1="602.8931" x2="362.2656" y1="387.5107" y2="387.5107"/><line style="stroke:#181818;stroke-width:1;" x1="362.2656" x2="362.2656" y1="387.5107" y2="402.5107"/><polygon fill="#181818" points="358.2656,392.5107,362.2656,402.5107,366.2656,392.5107,362.2656,396.5107" style="stroke:#181818;stroke-width:1;"/><line style="stroke:#181818;stroke-width:1;" x1="362.2656" x2="362.2656" y1="598.3857" y2="603.3857"/><line style="stroke:#181818;stroke-width:1;" x1="362.2656" x2="109.3867" y1="603.3857" y2="603.3857"/><line style="stroke:#181818;stroke-width:1;" x1="109.3867" x2="109.3867" y1="603.3857" y2="618.3857"/><polygon fill="#181818" points="105.3867,608.3857,109.3867,618.3857,113.3867,608.3857,109.3867,612.3857" style="stroke:#181818;stroke-width:1;"/><line style="stroke:#181818;stroke-width:1;" x1="109.3867" x2="109.3867" y1="652.3545" y2="657.3545"/><line style="stroke:#181818;stroke-width:1;" x1="109.3867" x2="362.2656" y1="657.3545" y2="657.3545"/><line style="stroke:#181818;stroke-width:1;" x1="362.2656" x2="362.2656" y1="657.3545" y2="672.3545"/><polygon fill="#181818" points="358.2656,662.3545,362.2656,672.3545,366.2656,662.3545,362.2656,666.3545" style="stroke:#181818;stroke-width:1;"/><text fill="#000000" font-family="sans-serif" font-size="18" lengthAdjust="spacing" textLength="95.6777" x="60.5479" y="29.4531">Peluquer&#237;a</text><text fill="#000000" font-family="sans-serif" font-size="18" lengthAdjust="spacing" textLength="105.3721" x="308.5796" y="29.4531">Distribuidor</text><text fill="#000000" font-family="sans-serif" font-size="18" lengthAdjust="spacing" textLength="152.2705" x="525.7578" y="29.4531">Marca fabricante</text><?plantuml-src VL6xJiDG3Dtp5NU4gNiwLILiI1L8x8xZ5alETNeV5KBvfKvyGduCNzI6K24ss-VOFZuUToJvc2bCPnYhc22agdvHOMIBtK0TTxgkwgtw15XAgDvr75FWDXiMrbKrFYpoiQgVwL0ASx_hmMUGddmYeniEmXy_C3W1umI4Ckof16uFRM04wx21kq03XAMUnf_OyfwCwz74_oa3kUKRqksiw0QreuIluhOG3WkKl3lHstJ6B5hWLuuNPsRVOjdzoyTvzLNlFnQXja7TNT84ujIPDcIG-x9hWobVd6A_rz03ylJfYwRc7KbM6qIASVLedybHfVGq0gr-dsUl9FiK12u2OjBX2m00?></g></svg>